# xmcd CD database file
#
# Track frame offsets:
#	150
#	22276
#	35994
#	50727
#	68483
#	82506
#	102546
#	127321
#	165514
#	178006
#	189830
#	204306
#	218656
#	242745
#	253986
#	276727
#	303717
#
# Disc length: 4392 seconds
#
# Revision: 0
# Processed by: cddbd v1.5.1PL2 Copyright (c) Steve Scherf et al.
# Submitted via: CDex 1.70beta2
#
DISCID=04112611
DTITLE=Canned Heat - Historical Figures And Ancient Heads - The New Age
DYEAR=2005
DGENRE=Blues
TTITLE0=Sneakin' Around
TTITLE1=Hill's Stomp
TTITLE2=Rockin' With The King
TTITLE3=I Don't Care What You Tell Me
TTITLE4=Long Way From L A 
TTITLE5=Cherokee Dance
TTITLE6=That's All Right
TTITLE7=Utah
TTITLE8=Keep It Clean
TTITLE9=Harley Davidson Blues
TTITLE10=Don't Deceive Me
TTITLE11=You Can Run, But You Sure Can't Hide
TTITLE12=Lookin' For My Rainbow
TTITLE13=Rock and Roll Music
TTITLE14=Framed
TTITLE15=Election Blues
TTITLE16=So Long Wrong
EXTD=YEAR: 2005
EXTT0=
EXTT1=
EXTT2=
EXTT3=
EXTT4=
EXTT5=
EXTT6=
EXTT7=
EXTT8=
EXTT9=
EXTT10=
EXTT11=
EXTT12=
EXTT13=
EXTT14=
EXTT15=
EXTT16=
PLAYORDER=
